<?xml version="1.0" encoding="UTF-8"?><svg id="Layer_1" xmlns="http://www.w3.org/2000/svg" viewBox="0 0 957.02 452.78"><path d="M210.95,206.21c1.06,8.62,2.63,17.21,3.08,25.86,1.12,21.7-3.99,41.1-24.2,57.53,1.18-12.78,3.01-22.94,2.89-33.07-.3-24.04-11.74-44.15-25.17-62.96-20.34-28.48-46.2-51.92-71.44-75.89-21.51-20.43-43.9-40.06-61.45-64.24-8.18-11.26-15.55-23.23-14-37.97C21.33,9.02,22.74.88,30.65.06c8.63-.89,5.89,7.91,7.4,12.6,4.57,14.18,13.75,25.2,24.3,34.91,30.85,28.41,62.42,56.05,93.19,84.55,18.45,17.09,34.73,36.17,46.32,58.8,7.64,2.36,8.86,8.53,9.09,15.29Z" style="fill:#202528;"/><path d="M118.36,374.94c.05-22.58-11.01-39.92-25.95-55.56-20.29-21.25-44.84-37.32-67.47-55.71-7.55-6.14-15.24-12.19-20.45-20.64-3.97-6.44-4.47-13.31,2.3-17.65,9.39-6.02,7.57,4.9,10.19,8.23,8.75,11.14,20.35,18.68,31.77,26.39,24.69,16.68,49.22,33.46,66.22,58.75,14.03,20.87,19.26,42.78,7.44,66.57-7.97-.87-4.82-6.09-4.06-10.38Z" style="fill:#202528;"/><path d="M210.95,206.21c-3.9-4.58-7.67-9.24-9.09-15.29,6.36-14.16.22-27.18-4.72-39.72-9.79-24.87-27.38-44.21-47.16-61.63-19.21-16.91-38.73-33.47-57.75-50.59-7.08-6.37-13.41-13.69-17.01-23.09,33.04,30.42,75.2,48.74,106.12,81.72,29.04,30.97,40.63,66.71,29.61,108.6Z" style="fill:#202528;"/><path d="M48.12,132.02c-4.84.09-10.11.86-10.43,6.54-.28,4.95,5.41,5.41,8.93,6.78,11.93,4.62,24.3,7.58,37.08,8.81,3.27.32,8.05-.89,7.97,4.51-.06,4.29-3.99,5.75-7.56,6.36-15.36,2.64-30.7,2.4-45.04-4.12-5.64-2.56-11.24-4.56-17.14-6.17-3.69-1-10.52.17-5.43-7.98,2.5-4-3.17-5.47-5.71-7.61-4.09-3.45-9.15-6.06-10.8-13.97,17.51,9.34,35.09-5.79,51.8,3.66-.24,2.21-2.08,2.56-3.69,3.19Z" style="fill:#202528;"/><path d="M81.88,267.85c-27.34-23.3-45.28-52.79-56.66-86.72,19.22,31.09,39.49,61.27,66.03,86.63-3.1,2.82-6.22,2.09-9.36.09Z" style="fill:#202528;"/><path d="M87.44,131.63c-22.15-10.1-43-22.36-68.78-29.01,20.46-7.54,59.98,9.38,68.78,29.01Z" style="fill:#202528;"/><path d="M137.33,231.41c-17.54-.63-35.28,1.68-52.49-3.65,16.17-11.74,33.17-10.37,50.5-3.12,3.33,1.39,5.08,3.41,1.99,6.77Z" style="fill:#202528;"/><path d="M84.52,240.13c4.16-4.3,8.31-1.62,12.43.04,11.74,4.72,23.41,4.93,35.05-.37-6.1,12.65-15.89,16.69-29.36,11.05-6.41-2.69-12.11-7.09-18.13-10.72Z" style="fill:#202528;"/><path d="M158.62,243.4c-8.99,14.19-18.7,27.9-35.58,33.93,9.99-13.17,24.26-21.95,35.58-33.93Z" style="fill:#202528;"/><path d="M118.36,374.94c1.35,3.46,2.7,6.92,4.05,10.38-1.49,6.95-4.13,13.13-11.87,18.65-.23-11.91,5.32-20.08,7.82-29.02Z" style="fill:#202528;"/><path d="M48.12,132.02c1.23-1.06,2.46-2.13,3.69-3.19,9.54,1.33,17.61,5.54,27.83,13.48-14.32.4-22.19-7.17-31.51-10.29Z" style="fill:#202528;"/><path d="M81.88,267.85c3.12-.03,6.24-.06,9.36-.09,4.58,1.68,11.77,3.39,8.52,9.22-2.74,4.92-7.8-.96-11.36-3.05-2.5-1.47-4.37-4.02-6.53-6.08Z" style="fill:#202528;"/><path d="M237.45,405.66v-66.89h103.11c12.57,0,22.91-9.61,22.91-22.54,0-16.08-10.35-24.76-28.46-24.76h-96.64l7.58-9.42h88.7c24.39,0,39.17,11.83,39.17,32.89,0,15.34-11.27,25.13-20.51,27.16,11.09,2.59,22.91,12.56,22.91,30.12,0,18.48-11.64,33.45-42.32,33.45h-96.46ZM248.36,347.08v49.34h85.74c21.99,0,31.23-11.64,31.23-24.95,0-14.41-10.35-24.39-24.58-24.39h-92.39Z" style="fill:#202528;"/><path d="M394.15,405.66v-123.62h125.28l-7.21,9.42h-107.17v47.49h109.39l-6.47,8.32h-102.92v49.15h115.49l-7.21,9.24h-119.19Z" style="fill:#202528;"/><path d="M532.56,405.66v-123.62h10.72v114.38h106.99l-7.21,9.24h-110.5Z" style="fill:#202528;"/><path d="M661.91,405.66v-123.62h10.72v114.38h106.99l-7.21,9.24h-110.5Z" style="fill:#202528;"/><path d="M826.19,405.66l6.84-9.24h102.92l-68-103.29-75.02,112.53h-12.75l80.57-120.66c1.29-2.03,4.06-4.25,7.21-4.25,3.33,0,5.91,2.03,7.39,4.25l80.01,120.66h-129.16Z" style="fill:#202528;"/></svg>